# xmcd CD database file
#
# Track frame offsets:
#	150
#	20550
#	39985
#
# Disc length: 1003 seconds
#
# Revision: 0
# Processed by: cddbd v1.5.1PL0 Copyright (c) Steve Scherf et al.
# Submitted via: CDex 1.51
#
DISCID=1a03e903
DTITLE=bloodthirsty butchers - 「△」サンカク
DYEAR=1999
DGENRE=Rock
TTITLE0=「△」サンカク
TTITLE1=ピンチ
TTITLE2=時が終わる
EXTD=YEAR: 1999.06/30
EXTT0=
EXTT1=
EXTT2=
PLAYORDER=
